<svg id="logo" xmlns="http://www.w3.org/2000/svg" viewBox="0 0 128 128"><defs><style>.cls-1{fill:#00a000;}.cls-2{fill:none;}</style></defs><title>VTX_LOGO-Mark</title><path class="cls-1" d="M45.74,50.76a4.7,4.7,0,0,0,.92-.09L60.3,79.34a4.92,4.92,0,1,0,7.29,0L81.26,50.66a4.71,4.71,0,0,0,1,.1,4.94,4.94,0,1,0-2.83-.91L66,78.16a4.81,4.81,0,0,0-4,0L48.51,49.9a4.91,4.91,0,1,0-2.77.86Zm36.52-7.84a2.92,2.92,0,1,1-2.91,2.92A2.93,2.93,0,0,1,82.26,42.92ZM66.85,82.63a2.92,2.92,0,1,1-2.92-2.92A2.92,2.92,0,0,1,66.85,82.63ZM45.74,42.92a2.92,2.92,0,1,1-2.92,2.92A2.93,2.93,0,0,1,45.74,42.92Z"/><path class="cls-1" d="M24,24v80h80V24Zm78,78H26V26h76Z"/><rect class="cls-2" width="128" height="128"/></svg>