<svg id="logo" xmlns="http://www.w3.org/2000/svg" viewBox="0 0 314.64 128"><defs><style>.cls-1{fill:#00a000;}.cls-2{fill:none;}</style></defs><title>VTX_LOGO-FullHorz</title><path class="cls-1" d="M46,50.76a4.63,4.63,0,0,0,.92-.09L60.52,79.34a4.92,4.92,0,1,0,7.29,0L81.47,50.66a4.87,4.87,0,0,0,1,.1,5,5,0,1,0-2.83-.91L66.17,78.16a4.79,4.79,0,0,0-4,0L48.72,49.9a4.91,4.91,0,1,0-2.77.86Zm36.53-7.84a2.92,2.92,0,1,1-2.92,2.92A2.93,2.93,0,0,1,82.48,42.92ZM67.07,82.63a2.92,2.92,0,1,1-2.92-2.92A2.92,2.92,0,0,1,67.07,82.63ZM46,42.92A2.92,2.92,0,1,1,43,45.84,2.93,2.93,0,0,1,46,42.92Z"/><path class="cls-1" d="M24.22,24v80h80V24Zm78,78h-76V26h76Z"/><polygon class="cls-1" points="143.08 78 128.37 48 126.14 48 141.79 80 144.33 80 159.98 48 157.78 48 143.08 78"/><polygon class="cls-1" points="162.25 80 182.25 80 182.25 78 164.25 78 164.25 58 182.25 58 182.25 67.14 166.25 67.14 166.25 69.14 184.25 69.14 184.25 56 162.25 56 162.25 80"/><polygon class="cls-1" points="240.25 80 260.25 80 260.25 78 242.25 78 242.25 58 260.25 58 260.25 67.14 244.25 67.14 244.25 69.14 262.25 69.14 262.25 56 240.25 56 240.25 80"/><polygon class="cls-1" points="190.25 80 192.25 80 192.25 58 208.25 58 208.25 64 210.25 64 210.25 56 190.25 56 190.25 80"/><polygon class="cls-1" points="234.25 58 234.25 56 222.25 56 222.25 48 220.25 48 220.25 56 214.25 56 214.25 58 220.25 58 220.25 80 230.25 80 230.25 78 222.25 78 222.25 58 234.25 58"/><polygon class="cls-1" points="280.44 68.03 290.64 56 288.02 56 279.13 66.48 270.25 56 267.63 56 277.82 68.03 267.67 80 270.29 80 279.13 69.57 279.13 69.57 287.98 80 290.6 80 280.44 68.03 280.44 68.03"/><rect class="cls-2" width="314.64" height="128"/></svg>